<?xml version="1.0" encoding="utf-8"?>
<!-- Generator: Adobe Illustrator 19.0.0, SVG Export Plug-In . SVG Version: 6.00 Build 0)  -->
<svg version="1.1" id="Layer_1" xmlns="http://www.w3.org/2000/svg" xmlns:xlink="http://www.w3.org/1999/xlink" x="0px" y="0px"
	 viewBox="0 0 271.2 28.4" style="enable-background:new 0 0 271.2 28.4;" xml:space="preserve">
<style type="text/css">
	.st0{fill:#241F1C;}
</style>
<g id="XMLID_21_">
	<path id="XMLID_24_" class="st0" d="M27.6,28h-3.2L24,27.6v-12c0-0.6,0-1.1-0.1-1.7c-0.1-0.5-0.2-1-0.5-1.4c-0.2-0.4-0.6-0.7-1.1-1
		c-0.5-0.2-1.1-0.4-1.9-0.4c-1.4,0-2.5,0.5-3.3,1.4c-0.7,0.9-1.1,2.2-1.1,3.8v11.2L15.6,28h-3.2L12,27.6v-12c0-0.6,0-1.1-0.1-1.7
		c-0.1-0.5-0.2-1-0.5-1.4c-0.2-0.4-0.6-0.7-1.1-1c-0.5-0.2-1.1-0.4-1.9-0.4c-0.5,0-1,0.1-1.5,0.3c-0.5,0.2-1,0.5-1.4,0.9
		c-0.4,0.4-0.8,0.9-1,1.6C4.1,14.6,4,15.4,4,16.4v11.2L3.6,28H0.4L0,27.6V8.4L0.4,8h2.8l0.4,0.4L4,10h0.4c0.4-0.6,1-1.2,1.8-1.7
		C7,7.8,8.2,7.6,9.6,7.6c0.8,0,1.5,0.1,2,0.3c0.6,0.2,1,0.4,1.4,0.7c0.4,0.3,0.7,0.6,1,0.9c0.3,0.3,0.5,0.6,0.7,0.9h0.4
		c0.6-0.8,1.4-1.5,2.4-2c1-0.5,2.2-0.8,3.6-0.8c1.4,0,2.5,0.2,3.4,0.6c0.9,0.4,1.6,1,2.1,1.7c0.5,0.7,0.8,1.6,1,2.5
		c0.2,1,0.3,2,0.3,3.1v12L27.6,28z"/>
	<path id="XMLID_26_" class="st0" d="M48.4,28h-2.8l-0.4-0.4L44.8,26h-0.4c-0.3,0.5-0.7,0.9-1.2,1.2c-0.4,0.3-0.9,0.6-1.5,0.8
		c-0.6,0.3-1.3,0.4-2.1,0.4c-1.4,0-2.6-0.2-3.6-0.7c-1-0.5-1.7-1.1-2.3-1.9c-0.6-0.8-1-1.7-1.3-2.7c-0.3-1-0.4-2.1-0.4-3.2V8.4
		L32.4,8h3.2L36,8.4V20c0,0.6,0.1,1.2,0.2,1.8c0.1,0.6,0.3,1.1,0.6,1.5c0.3,0.4,0.7,0.8,1.2,1.1c0.5,0.3,1.2,0.4,2,0.4
		c1.4,0,2.5-0.5,3.4-1.6c0.9-1.1,1.4-2.8,1.4-5.2V8.4L45.2,8h3.2l0.4,0.4v19.2L48.4,28z"/>
	<path id="XMLID_28_" class="st0" d="M68.4,22.4c0,0.8-0.2,1.6-0.5,2.3c-0.3,0.7-0.8,1.4-1.4,1.9s-1.5,1-2.5,1.3
		c-1,0.3-2.2,0.5-3.6,0.5c-2.6,0-4.6-0.6-6-1.7c-1.3-1.1-2-2.8-2-5.1l0.4-0.4H56l0.4,0.4c0,1,0.3,1.8,0.9,2.4
		c0.6,0.6,1.6,0.8,3.1,0.8c1.4,0,2.5-0.2,3.1-0.6c0.6-0.4,0.9-1,0.9-1.8c0-0.5-0.1-0.9-0.3-1.2c-0.2-0.3-0.5-0.6-0.9-0.8
		c-0.4-0.2-0.9-0.4-1.6-0.6c-0.7-0.2-1.5-0.3-2.5-0.6c-2-0.4-3.6-1-4.7-1.9c-1.1-0.9-1.7-2.3-1.7-4.1c0-0.7,0.1-1.4,0.4-2.1
		c0.3-0.7,0.7-1.3,1.3-1.8c0.6-0.5,1.4-0.9,2.3-1.3c1-0.3,2.1-0.5,3.6-0.5c1.1,0,2.1,0.1,3,0.4c0.9,0.3,1.7,0.6,2.4,1.1
		c0.7,0.5,1.2,1.1,1.6,1.9c0.4,0.8,0.6,1.6,0.6,2.6L67.6,14h-3.2L64,13.6c0-0.3-0.1-0.6-0.2-0.9c-0.1-0.3-0.3-0.6-0.6-0.8
		c-0.3-0.2-0.7-0.4-1.1-0.5c-0.5-0.1-1-0.2-1.7-0.2c-1,0-1.9,0.1-2.6,0.4c-0.7,0.3-1,0.8-1,1.6c0,0.5,0.1,0.9,0.3,1.2
		c0.2,0.3,0.5,0.6,1,0.8c0.5,0.2,1,0.4,1.7,0.6c0.7,0.2,1.6,0.4,2.6,0.5c2,0.4,3.5,1,4.5,1.9C67.9,19.2,68.4,20.6,68.4,22.4z"/>
	<path id="XMLID_30_" class="st0" d="M80.4,28.4c-1.6,0-3-0.3-4.2-0.8c-1.2-0.5-2.2-1.2-3-2.2c-0.8-0.9-1.4-2-1.8-3.3
		c-0.4-1.3-0.6-2.7-0.6-4.2c0-1.4,0.2-2.7,0.5-4c0.4-1.3,0.9-2.4,1.7-3.3c0.7-0.9,1.7-1.7,2.9-2.3C77,7.9,78.4,7.6,80,7.6
		s3,0.3,4.1,0.8s2.1,1.3,2.9,2.3c0.7,0.9,1.3,2.1,1.7,3.3c0.4,1.3,0.5,2.6,0.5,4v1.2l-0.4,0.4H75.6L75.2,20c0,0.2,0,0.6,0.1,1.1
		c0.1,0.5,0.3,1.1,0.7,1.6c0.3,0.5,0.9,1,1.6,1.5c0.7,0.4,1.6,0.6,2.8,0.6c0.8,0,1.6-0.1,2.3-0.4c0.7-0.3,1.3-0.9,1.7-2l0.4-0.4H88
		l0.4,0.4c-0.1,0.8-0.4,1.6-0.8,2.3S86.7,26,86,26.6c-0.7,0.6-1.5,1-2.4,1.3C82.7,28.2,81.6,28.4,80.4,28.4z M84.8,16
		c0-0.3,0-0.7-0.1-1.3c-0.1-0.5-0.3-1.1-0.6-1.6s-0.8-1-1.4-1.4c-0.6-0.4-1.5-0.6-2.6-0.6c-1.1,0-2,0.2-2.6,0.6
		c-0.6,0.4-1.1,0.8-1.4,1.4c-0.3,0.5-0.5,1.1-0.6,1.6c-0.1,0.5-0.1,1-0.1,1.3l0.4,0.4h8.8L84.8,16z"/>
	<path id="XMLID_33_" class="st0" d="M108.8,28H106l-0.4-0.4l-0.4-1.6h-0.4c-0.3,0.5-0.7,0.9-1.2,1.2c-0.4,0.3-0.9,0.6-1.5,0.8
		c-0.6,0.3-1.3,0.4-2.1,0.4c-1.4,0-2.6-0.2-3.6-0.7c-1-0.5-1.7-1.1-2.3-1.9c-0.6-0.8-1-1.7-1.3-2.7c-0.3-1-0.4-2.1-0.4-3.2V8.4
		L92.8,8H96l0.4,0.4V20c0,0.6,0.1,1.2,0.2,1.8c0.1,0.6,0.3,1.1,0.6,1.5c0.3,0.4,0.7,0.8,1.2,1.1c0.5,0.3,1.2,0.4,2,0.4
		c1.4,0,2.5-0.5,3.4-1.6c0.9-1.1,1.4-2.8,1.4-5.2V8.4l0.4-0.4h3.2l0.4,0.4v19.2L108.8,28z"/>
	<path id="XMLID_35_" class="st0" d="M141.6,28h-3.2l-0.4-0.4v-12c0-0.6,0-1.1-0.1-1.7c-0.1-0.5-0.2-1-0.5-1.4
		c-0.2-0.4-0.6-0.7-1.1-1c-0.5-0.2-1.1-0.4-1.9-0.4c-1.4,0-2.5,0.5-3.3,1.4c-0.7,0.9-1.1,2.2-1.1,3.8v11.2l-0.4,0.4h-3.2l-0.4-0.4
		v-12c0-0.6,0-1.1-0.1-1.7c-0.1-0.5-0.2-1-0.5-1.4c-0.2-0.4-0.6-0.7-1.1-1c-0.5-0.2-1.1-0.4-1.9-0.4c-0.5,0-1,0.1-1.5,0.3
		c-0.5,0.2-1,0.5-1.4,0.9c-0.4,0.4-0.8,0.9-1,1.6c-0.3,0.7-0.4,1.5-0.4,2.5v11.2l-0.4,0.4h-3.2l-0.4-0.4V8.4l0.4-0.4h2.8l0.4,0.4
		L118,10h0.4c0.4-0.6,1-1.2,1.8-1.7c0.8-0.5,1.9-0.7,3.4-0.7c0.8,0,1.5,0.1,2,0.3c0.6,0.2,1,0.4,1.4,0.7c0.4,0.3,0.7,0.6,1,0.9
		c0.3,0.3,0.5,0.6,0.7,0.9h0.4c0.6-0.8,1.4-1.5,2.4-2c1-0.5,2.2-0.8,3.6-0.8c1.4,0,2.5,0.2,3.4,0.6c0.9,0.4,1.6,1,2.1,1.7
		c0.5,0.7,0.8,1.6,1,2.5c0.2,1,0.3,2,0.3,3.1v12L141.6,28z"/>
	<path id="XMLID_37_" class="st0" d="M148.4,27.6L148,28h-2l-0.4-0.4v-2.8L160,0.4l0.4-0.4h2l0.4,0.4v2.8L148.4,27.6z"/>
	<path id="XMLID_57_" class="st0" d="M182.8,28h-1.6l-0.8-0.4l-6-7.6H174l-2.8,2.8l-0.4,0.8v4l-0.4,0.4h-3.2l-0.4-0.4V0.4l0.4-0.4
		h3.2l0.4,0.4v17.2h0.4l9.2-9.2l0.8-0.4h1.2l0.4,0.4v2.8l-5.6,5.6v0.4l6,7.6v2.8L182.8,28z"/>
	<path id="XMLID_59_" class="st0" d="M202,28h-2.8l-0.4-0.4l-0.4-1.6H198c-0.4,0.5-0.8,0.9-1.3,1.2c-0.5,0.3-1,0.6-1.7,0.8
		c-0.7,0.3-1.5,0.4-2.6,0.4c-2.2,0-3.9-0.6-5.1-1.7c-1.1-1.1-1.7-2.7-1.7-4.7c0-1.1,0.2-2,0.6-2.9c0.4-0.8,1-1.5,1.8-2
		c0.8-0.5,1.7-0.9,2.8-1.2c1.1-0.3,2.3-0.4,3.6-0.4c0.5,0,1,0,1.4,0.1s0.8,0.1,1.1,0.1c0.2,0.1,0.4,0.1,0.5,0.1
		c0.2,0,0.3,0.1,0.5,0.1l0.4-0.4v-0.8c0-1.4-0.3-2.4-0.9-2.9c-0.6-0.5-1.6-0.7-3.1-0.7c-1.4,0-2.5,0.2-3.1,0.6
		c-0.6,0.4-0.9,1-0.9,1.8L190,14h-3.2l-0.4-0.4c0-0.7,0.1-1.4,0.4-2.1c0.3-0.7,0.7-1.4,1.3-1.9c0.6-0.6,1.5-1,2.5-1.4
		c1-0.4,2.3-0.5,3.8-0.5c1.5,0,2.8,0.2,3.8,0.5c1,0.4,1.9,0.9,2.5,1.6c0.6,0.7,1.1,1.6,1.3,2.7c0.3,1.1,0.4,2.4,0.4,3.9v11.2L202,28
		z M198.4,19.6l-0.4-0.4l-0.8-0.2c-0.3-0.1-0.6-0.1-1-0.1s-0.8-0.1-1.3-0.1c-1.8,0-3.2,0.3-4,0.8c-0.8,0.6-1.2,1.3-1.2,2.4
		c0,1,0.3,1.7,0.9,2.2c0.6,0.4,1.5,0.6,2.7,0.6c1.6,0,2.9-0.4,3.8-1.1c0.9-0.7,1.4-1.7,1.4-2.9V19.6z"/>
	<path id="XMLID_62_" class="st0" d="M222,28h-2.8l-0.4-0.4l-0.4-1.6H218c-0.4,0.5-0.8,0.9-1.3,1.2c-0.5,0.3-1,0.6-1.7,0.8
		c-0.7,0.3-1.5,0.4-2.6,0.4c-2.2,0-3.9-0.6-5.1-1.7c-1.1-1.1-1.7-2.7-1.7-4.7c0-1.1,0.2-2,0.6-2.9c0.4-0.8,1-1.5,1.8-2
		c0.8-0.5,1.7-0.9,2.8-1.2c1.1-0.3,2.3-0.4,3.6-0.4c0.5,0,1,0,1.4,0.1s0.8,0.1,1.1,0.1c0.2,0.1,0.4,0.1,0.5,0.1
		c0.2,0,0.3,0.1,0.5,0.1l0.4-0.4v-0.8c0-1.4-0.3-2.4-0.9-2.9c-0.6-0.5-1.6-0.7-3.1-0.7c-1.4,0-2.5,0.2-3.1,0.6
		c-0.6,0.4-0.9,1-0.9,1.8L210,14h-3.2l-0.4-0.4c0-0.7,0.1-1.4,0.4-2.1c0.3-0.7,0.7-1.4,1.3-1.9c0.6-0.6,1.5-1,2.5-1.4
		c1-0.4,2.3-0.5,3.8-0.5c1.5,0,2.8,0.2,3.8,0.5c1,0.4,1.9,0.9,2.5,1.6c0.6,0.7,1.1,1.6,1.3,2.7c0.3,1.1,0.4,2.4,0.4,3.9v11.2L222,28
		z M218.4,19.6l-0.4-0.4l-0.8-0.2c-0.3-0.1-0.6-0.1-1-0.1s-0.8-0.1-1.3-0.1c-1.8,0-3.2,0.3-4,0.8c-0.8,0.6-1.2,1.3-1.2,2.4
		c0,1,0.3,1.7,0.9,2.2c0.6,0.4,1.5,0.6,2.7,0.6c1.6,0,2.9-0.4,3.8-1.1c0.9-0.7,1.4-1.7,1.4-2.9V19.6z"/>
	<path id="XMLID_65_" class="st0" d="M238,11.6h-2c-0.8,0-1.5,0.1-2.2,0.3c-0.6,0.2-1.2,0.5-1.6,0.9c-0.5,0.5-0.8,1.1-1,1.8
		s-0.4,1.8-0.4,3v10l-0.4,0.4h-3.2l-0.4-0.4V8.4l0.4-0.4h2.8l0.4,0.4l0.4,1.6h0.4c0.3-0.3,0.6-0.6,0.9-0.8c0.3-0.3,0.7-0.5,1.1-0.6
		c0.4-0.2,0.9-0.3,1.4-0.4c0.5-0.1,1.1-0.1,1.8-0.1h1.6l0.4,0.4v2.8L238,11.6z"/>
	<path id="XMLID_67_" class="st0" d="M252.4,28h-3.2c-0.7,0-1.4-0.1-2.1-0.3c-0.7-0.2-1.3-0.5-1.8-0.9c-0.5-0.4-0.9-1-1.3-1.6
		c-0.3-0.7-0.5-1.4-0.5-2.3V12l-0.4-0.4h-2.8l-0.4-0.4V8.4l0.4-0.4h2.8l0.4-0.4V4l0.4-0.4h3.2l0.4,0.4v3.6L248,8h4.4l0.4,0.4v2.8
		l-0.4,0.4H248l-0.4,0.4v10.8c0,0.6,0.2,1,0.5,1.3c0.3,0.2,0.7,0.3,1.1,0.3h3.2l0.4,0.4v2.8L252.4,28z"/>
	<path id="XMLID_69_" class="st0" d="M254,3.2V0.4l0.4-0.4h2l0.4,0.4l14.4,24.4v2.8l-0.4,0.4h-2l-0.4-0.4L254,3.2z"/>
</g>
</svg>
